<svg xmlns="http://www.w3.org/2000/svg" viewBox="0 0 64 64" width="32" height="32"><defs><linearGradient id="sf1m2c5drsg" x1="0" y1="0" x2="0" y2="1"><stop offset="0%" stop-color="#f1dace"/><stop offset="100%" stop-color="#baa79c"/></linearGradient><linearGradient id="sf1m2c5drhg" x1="0" y1="0" x2="0" y2="1"><stop offset="0%" stop-color="#b5634f"/><stop offset="100%" stop-color="#8f3d29"/></linearGradient><linearGradient id="sf1m2c5drbg" x1="0" y1="0" x2="1" y2="1"><stop offset="0%" stop-color="#b57b93"/><stop offset="100%" stop-color="#965c74"/></linearGradient></defs><rect x="0" y="0" width="64" height="64" fill="url(#sf1m2c5drbg)" opacity="1" rx="4"/><ellipse cx="11" cy="34" rx="4" ry="5" fill="#e3cbbe"/><ellipse cx="11" cy="34" rx="2.5" ry="3.5" fill="#d7c1b4" opacity="0.3"/><ellipse cx="53" cy="34" rx="4" ry="5" fill="#e3cbbe"/><ellipse cx="53" cy="34" rx="2.5" ry="3.5" fill="#d7c1b4" opacity="0.3"/><rect x="14" y="16" width="36" height="38" rx="12" ry="12" fill="url(#sf1m2c5drsg)"/><g fill="url(#sf1m2c5drhg)"><circle cx="20" cy="14" r="5"/><circle cx="28" cy="11" r="5.5"/><circle cx="36" cy="11" r="5.5"/><circle cx="44" cy="14" r="5"/><circle cx="16" cy="20" r="4"/><circle cx="48" cy="20" r="4"/></g><circle cx="25" cy="33" r="4" fill="#f9f6f0"/><circle cx="25.8" cy="33" r="2.2" fill="#38784C"/><circle cx="39" cy="33" r="4" fill="#f9f6f0"/><circle cx="39.8" cy="33" r="2.2" fill="#38784C"/><path d="M21 28 Q25 24 29 28" fill="none" stroke="#6c605a" stroke-width="1" stroke-linecap="round"/><path d="M35 28 Q39 24 43 28" fill="none" stroke="#6c605a" stroke-width="1" stroke-linecap="round"/><path d="M30 40 Q32 37 34 40" fill="none" stroke="#bfaba0" stroke-width="1" stroke-linecap="round" opacity="0.5"/><ellipse cx="32" cy="46" rx="2.5" ry="3" fill="#c67a7e" opacity="0.7"/><g fill="none" stroke="#4a4a5a" stroke-width="1"><circle cx="25" cy="33" r="5.5"/><circle cx="39" cy="33" r="5.5"/><line x1="30.5" y1="33" x2="33.5" y2="33"/><line x1="19.5" y1="33" x2="14" y2="31"/><line x1="44.5" y1="33" x2="50" y2="31"/></g></svg>